<?xml version="1.0" encoding="utf-8"?>
<!-- Generator: Adobe Illustrator 25.2.1, SVG Export Plug-In . SVG Version: 6.00 Build 0)  -->
<svg version="1.1" id="Réteg_1" xmlns="http://www.w3.org/2000/svg" xmlns:xlink="http://www.w3.org/1999/xlink" x="0px" y="0px"
	 viewBox="0 0 80 80" style="enable-background:new 0 0 80 80;" xml:space="preserve">
<style type="text/css">
	.st0{fill:#07DD1B;}
	.st1{fill:#FF0000;}
</style>
<g id="Réteg_3">
	<path class="st0" d="M40.2,28.2c0,0-1.7-4.4,0.2-8.3s6.4-0.6,8.7-1.9S43.3,4.7,43.9,1.7s-1.9,7.1-4.6,8.8c-2.7,1.7-4.6,5.8-2.4,6.8
		c2.2,1.1,2.1,6.4,2.1,6.4S39,26.3,40.2,28.2z"/>
</g>
<g id="Réteg_2_1_">
	<g>
		<path d="M46.5,71.3c0,0-1.5-3.5-2.1-6.4l-4.2-3.6l0,0l0,0l0,0l0,0l-1.1,4.1c0.9,2,1.5,4.7,1.5,4.7l1.2-4.9l-1.6-4l2.1,4.6
			L46.5,71.3z"/>
		<path d="M34,71.3l4.2-5.4l2.1-4.6l-4.2,3.6C35.5,67.8,34,71.3,34,71.3z"/>
	</g>
	<path d="M39,24.6c0,0-0.9-11.3-7.2-15.3s-5.5-4.4-4.5-5.2S39,11.4,39.6,16S39,24.6,39,24.6z"/>
</g>
<ellipse class="st1" cx="39.9" cy="39.9" rx="29.1" ry="25.2"/>
</svg>
