<?xml version="1.0" encoding="utf-8"?>
<!-- Generator: Adobe Illustrator 25.2.1, SVG Export Plug-In . SVG Version: 6.00 Build 0)  -->
<svg version="1.1" id="Réteg_1" xmlns="http://www.w3.org/2000/svg" xmlns:xlink="http://www.w3.org/1999/xlink" x="0px" y="0px"
	 viewBox="0 0 300 300" style="enable-background:new 0 0 300 300;" xml:space="preserve">
<style type="text/css">
	.st0{fill:#FFFFFF;}
</style>
<g>
	<path class="st0" d="M54.9,176.9v-53.8h7.6l17.2,27.2c4,6.3,7.1,12,9.7,17.5l0.2-0.1c-0.6-7.2-0.8-13.7-0.8-22.1v-22.5h6.5v53.8h-7
		l-17.1-27.3c-3.8-6-7.3-12.1-10.1-18l-0.2,0.1c0.4,6.8,0.6,13.2,0.6,22.2v23L54.9,176.9L54.9,176.9z"/>
	<path class="st0" d="M153.4,149.4c0,18.5-11.3,28.3-25,28.3c-14.2,0-24.2-11-24.2-27.3c0-17.1,10.6-28.3,25-28.3
		C143.9,122.2,153.4,133.5,153.4,149.4z M111.6,150.3c0,11.5,6.2,21.8,17.2,21.8S146,162,146,149.8c0-10.7-5.6-21.9-17.2-21.9
		C117.4,127.9,111.6,138.5,111.6,150.3z"/>
	<path class="st0" d="M162.4,176.9v-53.8h7.6l17.2,27.2c4,6.3,7.1,12,9.7,17.5l0.2-0.1c-0.6-7.2-0.8-13.7-0.8-22.1v-22.5h6.5v53.8
		h-7l-17.1-27.3c-3.8-6-7.3-12.1-10.1-18l-0.2,0.1c0.4,6.8,0.6,13.2,0.6,22.2v23L162.4,176.9L162.4,176.9z"/>
	<path class="st0" d="M242.8,151.7h-20.9v19.4h23.3v5.8h-30.3v-53.8H244v5.8h-22.1v17h20.9L242.8,151.7L242.8,151.7z"/>
</g>
</svg>
