<?xml version="1.0" encoding="utf-8"?>
<!-- Generator: Adobe Illustrator 25.2.1, SVG Export Plug-In . SVG Version: 6.00 Build 0)  -->
<svg version="1.1" id="Réteg_1" xmlns="http://www.w3.org/2000/svg" xmlns:xlink="http://www.w3.org/1999/xlink" x="0px" y="0px"
	 viewBox="0 0 300 300" style="enable-background:new 0 0 300 300;" xml:space="preserve">
<style type="text/css">
	.st0{fill:#FFFFFF;}
</style>
<g>
	<g>
		<polygon class="st0" points="30,81.5 30,30 81.5,30 81.5,0 30,0 0,0 0,30 0,81.5 		"/>
	</g>
	<g>
		<polygon class="st0" points="218.5,30 270,30 270,81.5 300,81.5 300,30 300,0 270,0 218.5,0 		"/>
	</g>
	<g>
		<polygon class="st0" points="270,218.5 270,270 218.5,270 218.5,300 270,300 300,300 300,270 300,218.5 		"/>
	</g>
	<g>
		<polygon class="st0" points="81.5,270 30,270 30,218.5 0,218.5 0,270 0,300 30,300 81.5,300 		"/>
	</g>
</g>
</svg>
