<?xml version="1.0" encoding="utf-8"?>
<!-- Generator: Adobe Illustrator 25.2.1, SVG Export Plug-In . SVG Version: 6.00 Build 0)  -->
<svg version="1.1" xmlns="http://www.w3.org/2000/svg" xmlns:xlink="http://www.w3.org/1999/xlink" x="0px" y="0px"
	 viewBox="0 0 16 16" style="enable-background:new 0 0 16 16;" xml:space="preserve">
<style type="text/css">
	.st0{display:none;}
	.st1{fill:#017EFF;}
	.st2{fill:#01B400;}
</style>
<g id="Réteg_1">
	<path class="st0" d="M3.5,2.8c-0.6-0.9-0.1-2,0.9-2.5L8,6.6l3.6-6.2c0.9,0.5,1.5,1.6,0.9,2.5L8.8,7.9l1.6,2.7
		c1.2-0.6,2.7-0.1,3.4,1.1c0.6,1.2,0.1,2.7-1.1,3.4c-1.2,0.6-2.7,0.1-3.4-1.1c-0.5-0.9-0.3-2,0.3-2.7L8,9.1l-1.6,2.2
		c0.9,1.1,0.7,2.6-0.3,3.5c-1.1,0.9-2.6,0.7-3.5-0.3s-0.7-2.6,0.3-3.5c0.8-0.6,1.8-0.8,2.7-0.3l1.6-2.7L3.5,2.8z M6,12.8
		c0-0.8-0.7-1.5-1.5-1.5S3,12,3,12.8s0.7,1.5,1.5,1.5S6,13.7,6,12.8z M13,12.8c0-0.8-0.7-1.5-1.5-1.5S10,12,10,12.8s0.7,1.5,1.5,1.5
		S13,13.7,13,12.8z"/>
	<g>
		<path class="st1" d="M7.8,10.4L7.8,10.4L7.8,10.4c0.4-0.5,0.7-1,0.8-1.2c0,0,0,0,0,0l3.1-4.3c0.5-0.8,1.1-1.5,1.4-1.9
			c0.1-0.1,0.4-0.7,0.2-1.4c-0.2-0.4-0.5-0.9-1-1.1l-1.9,3.3L10,4.4L9.3,5.5L8.6,6.7l0,0L7.1,9.3l-0.9,1.5c-0.9-0.5-2-0.3-2.7,0.3
			c-1.1,0.9-1.2,2.5-0.3,3.5c0.9,1.1,2.5,1.2,3.5,0.3c1.1-0.9,1.2-2.5,0.3-3.5C7.2,11.2,7.5,10.8,7.8,10.4z M5.1,14.5
			c-0.8,0-1.5-0.7-1.5-1.5s0.7-1.5,1.5-1.5s1.5,0.7,1.5,1.5S6,14.5,5.1,14.5z"/>
		<path class="st2" d="M8.9,11.4c-0.9,1.1-0.7,2.6,0.3,3.5c1.1,0.9,2.6,0.7,3.5-0.3c0.9-1.1,0.7-2.6-0.3-3.5
			c-0.8-0.6-1.8-0.8-2.7-0.3L8.9,9.3L7.4,6.7l0,0L6.7,5.5L6,4.4L5.7,3.8L3.7,0.5c-0.5,0.3-0.8,0.7-1,1.1C2.5,2.3,2.8,2.9,2.9,3
			c0.3,0.5,0.8,1.2,1.4,1.9l3.1,4.3c0,0,0,0,0,0c0.1,0.2,0.5,0.7,0.8,1.2l0,0l0,0C8.5,10.8,8.8,11.2,8.9,11.4z M9.4,13
			c0-0.8,0.7-1.5,1.5-1.5s1.5,0.7,1.5,1.5s-0.7,1.5-1.5,1.5S9.4,13.8,9.4,13z"/>
	</g>
</g>
<g id="Réteg_2">
</g>
</svg>
