<?xml version="1.0" encoding="utf-8"?>
<!-- Generator: Adobe Illustrator 25.2.1, SVG Export Plug-In . SVG Version: 6.00 Build 0)  -->
<svg version="1.1" id="Réteg_2_1_" xmlns="http://www.w3.org/2000/svg" xmlns:xlink="http://www.w3.org/1999/xlink" x="0px"
	 y="0px" viewBox="0 0 80 80" style="enable-background:new 0 0 80 80;" xml:space="preserve">
<style type="text/css">
	.st0{fill:#FFD000;}
</style>
<path class="st0" d="M77,31.8c0,0-1.5-11.5-12.6-8C53.3,27.3,55.2,38,55.2,38l-0.7,0.4c0,0-0.2-14.6-22.4-14.7
	C9.9,23.6,9.2,45.8,9.2,45.8l-7.5,2.1l0.1,1l9,3.2l-6.4,8.6c0,0,2.8,1.3,5.9,2.1c3.1,0.8,6.2-4.6,7.8-6.4c1.5-1.8,2.9-2.3,2.9-2.3
	s11.5,0.3,18.9,0.3c7.4-0.2,9.1,2,12.9,6.4s9.9,0,9.9,0s-1.4-1.7-3.9-4.7c-2.5-3.1-2.3-4.3-2-5.3s5.2-4,7.1-8.5
	c1.9-4.5,3.8-4.7,3.8-4.7s3-0.9,6.5-2.1S77,31.8,77,31.8z M69.7,30.5c-1.3,0-2.3-1-2.3-2.3s1-2.3,2.3-2.3s2.3,1,2.3,2.3
	S71,30.5,69.7,30.5z"/>
</svg>
