<?xml version="1.0" encoding="utf-8"?>
<!-- Generator: Adobe Illustrator 25.2.1, SVG Export Plug-In . SVG Version: 6.00 Build 0)  -->
<svg version="1.1" id="Réteg_1" xmlns="http://www.w3.org/2000/svg" xmlns:xlink="http://www.w3.org/1999/xlink" x="0px" y="0px"
	 viewBox="0 0 80 80" style="enable-background:new 0 0 80 80;" xml:space="preserve">
<style type="text/css">
	.st0{fill:#FFCC00;}
	.st1{stroke:#FF0000;stroke-width:4;stroke-linecap:round;stroke-miterlimit:10;}
</style>
<path class="st0" d="M42.8,18.7c1.2,0.5,1.8,1.4,1.8,2.8v37.1c-0.1,1.3-0.7,2.2-1.8,2.8c-0.4,0.2-0.8,0.3-1.3,0.3
	c-0.8,0.1-1.4-0.3-2-1.1L26.5,49h-8.1c-1.3,0-2.4-0.4-3.3-1.3c-0.8-0.8-1.3-1.9-1.4-3.3v-9.2c0.1-1.3,0.5-2.3,1.4-3.2
	c0.9-0.8,2-1.3,3.3-1.4h8.1l13-11.6C40.5,18.3,41.6,18.1,42.8,18.7L42.8,18.7z"/>
<g>
	<line class="st1" x1="66.8" y1="32.9" x2="52.5" y2="47.1"/>
	<line class="st1" x1="52.5" y1="32.9" x2="66.8" y2="47.1"/>
</g>
</svg>
