<?xml version="1.0" encoding="utf-8"?>
<!-- Generator: Adobe Illustrator 25.2.1, SVG Export Plug-In . SVG Version: 6.00 Build 0)  -->
<svg version="1.1" id="Réteg_1" xmlns="http://www.w3.org/2000/svg" xmlns:xlink="http://www.w3.org/1999/xlink" x="0px" y="0px"
	 viewBox="0 0 80 80" style="enable-background:new 0 0 80 80;" xml:space="preserve">
<style type="text/css">
	.st0{fill:#FFCC00;}
</style>
<path class="st0" d="M42.8,18.7c1.2,0.5,1.8,1.4,1.8,2.8v37.1c-0.1,1.3-0.7,2.2-1.8,2.8c-0.4,0.2-0.8,0.3-1.3,0.3
	c-0.8,0.1-1.4-0.3-2-1.1L26.5,49h-8.1c-1.3,0-2.4-0.4-3.3-1.3c-0.8-0.8-1.3-1.9-1.4-3.3v-9.2c0.1-1.3,0.5-2.3,1.4-3.2
	c0.9-0.8,2-1.3,3.3-1.4h8.1l13-11.6C40.5,18.3,41.6,18.1,42.8,18.7L42.8,18.7z M53.6,32.9c2.2,1.9,3.3,4.2,3.4,7.1
	c-0.1,2.9-1.2,5.3-3.4,7.1c-0.5,0.3-1,0.5-1.5,0.5c-0.7,0-1.3-0.3-1.7-0.8c-0.8-1.2-0.7-2.3,0.3-3.3c1.2-1,1.7-2.2,1.7-3.6
	c0-1.4-0.6-2.6-1.7-3.6c-1-1-1.1-2.1-0.3-3.3C51.3,32.2,52.4,32.1,53.6,32.9L53.6,32.9z M59.4,25.7c2.2,1.8,3.9,3.9,5,6.4
	c1.2,2.5,1.8,5.2,1.8,7.9c0,2.8-0.6,5.4-1.8,7.9c-1.2,2.4-2.8,4.6-5,6.4c-0.5,0.3-0.9,0.5-1.4,0.5c-0.7,0-1.3-0.3-1.8-0.8
	c-0.8-1.2-0.6-2.3,0.4-3.3c3.3-2.8,5.1-6.4,5.1-10.7c-0.1-4.3-1.8-7.9-5.1-10.7c-1-1-1.2-2.1-0.4-3.3C57.2,25,58.3,24.9,59.4,25.7
	L59.4,25.7z"/>
</svg>
